<?xml version="1.0" encoding="utf-8"?>
<svg version="1.1" id="Layer_1" xmlns="http://www.w3.org/2000/svg" xmlns:xlink="http://www.w3.org/1999/xlink" x="0px" y="0px"
	 viewBox="0 0 652 652" style="enable-background:new 0 0 652 652;" xml:space="preserve">
<g>
	<path d="M378.7,268.1c-3-1.6-10.1,0.5-11.6,3.5c-6.2,12.2-12.5,24.4-18.7,36.6c-5.5,10.9-11,21.7-16.9,33.3c15.8,0,30.7,0,45.7,0
		c2.2,0,2.4-1.2,2.4-2.9c0-22.7,0-45.4,0-68.1C379.5,269.8,379.9,268.7,378.7,268.1z"/>
	<path d="M227.8,316.9c-1.3-15.4-5.3-29.7-15.6-41.8c-15.3-17.9-44.4-20.6-65.5-13.5c-19.7,6.6-28.6,22.6-33.2,41.4
		c-3.7,15.1-3.8,30.4,0.1,45.4c5.1,19.4,13.8,36.4,34.9,42.8c12.8,3.9,25.7,4.3,38.8,1.2c13.6-3.2,24-10.5,30.9-22.9
		c7.3-13.2,9.9-27.4,9.6-42.3C227.9,323.7,228.1,320.3,227.8,316.9z"/>
	<path d="M326,12.3C152.7,12.3,12.3,152.7,12.3,326S152.7,639.7,326,639.7S639.7,499.2,639.7,326S499.2,12.3,326,12.3z M259.7,381.1
		c-17.9,32.2-46.2,48-82.6,50c-2.8,0.2-5.6,0-8.4,0c-19.9,0.4-39-3.1-56.1-13.5c-23.5-14.4-37.6-36-43.9-62.2
		c-6.4-26.5-5-52.8,7-77.7c14.7-30.6,38.9-49.3,72.7-54.8c19.5-3.2,39-2.7,57.9,3.3c30.1,9.6,49.9,30.5,60.5,59.6
		C278.6,318.2,276.8,350.5,259.7,381.1z M443.4,344.3c-0.9,8.2-1.6,16.4-2.2,24.6c-0.2,2.6-1.1,3.5-3.8,3.4
		c-5.5-0.2-11,0.1-16.5-0.1c-3.4-0.2-4.5,0.7-4.4,4.3c0.2,12,0,23.9,0.2,35.9c0,2.9-0.7,3.7-3.6,3.7c-10-0.2-20.1-0.2-30.1,0
		c-2.8,0-3.4-0.8-3.4-3.4c0.1-12.2,0-24.5,0.1-36.7c0-2.9-0.9-3.7-3.7-3.7c-23.9,0.1-47.9,0-71.8,0.1c-3.2,0-4.5-0.6-4.8-4.2
		c-0.5-7.2-1.7-14.5-2.9-21.6c-0.6-3.8,0.6-6.9,2.3-10.1c16.8-32.2,33.6-64.5,50.2-96.8c1.4-2.7,2.9-3.7,6-3.6
		c19.3,0.1,38.5,0.1,57.8,0c3.1,0,4,0.8,4,3.9c-0.2,16.4-0.1,32.7-0.1,49.1c0,16.2,0.1,32.5-0.1,48.7c0,3,0.6,4.1,3.9,4
		c6.7-0.3,13.5,0,20.2-0.1C442.5,341.5,443.6,341.8,443.4,344.3z M550.2,412.2c-18.5,6.4-37.4,7.1-56.4,2.7
		c-20.4-4.7-34.8-22.4-35.7-43.1c-0.1-2.8,0.5-4,3.5-4.8c8-2.1,15.8-4.6,23.6-7.1c2-0.6,2.8-0.4,3.2,2c2.7,16.9,12.6,24.7,30.2,24
		c7.4-0.3,14.4-1.1,20.1-6.7c10.3-10.2,11-31,0.9-39.5c-5.8-4.9-13.1-5.9-20.3-7.2c-10.5-2-21.1-1.3-31.6-0.3
		c-3.1,0.3-6.9,1.5-9.3-0.2c-4.2-3-7.6-7.1-11.2-10.9c-0.7-0.7-0.5-2.4-0.5-3.6c0-26.3,0-52.5-0.1-78.8c0-3.6,1.3-4.3,4.6-4.3
		c17.1,0.1,34.1,0.1,51.2,0.1s34.1,0.1,51.2-0.1c3,0,4.1,0.9,4.3,3.9c1.4,14.6,3,29.2,4.6,43.9c0.3,2.3-0.5,3.2-2.8,3.4
		c-8.8,0.7-17.5,1.5-26.3,2.4c-2.1,0.2-2.6-0.9-3-2.5c-1.2-5.4-2.5-10.7-3.6-16.1c-0.5-2.3-1.5-3-3.9-3c-12.8,0.1-25.6,0.1-38.4,0
		c-2.6,0-3.6,0.6-3.5,3.4c0.2,9.3,0.2,18.7,0,28.1c-0.1,2.9,1,3.3,3.6,3.2c16.6-0.6,33,0.9,48.7,6.6c19.6,7.1,31.2,20.8,33.2,41.9
		c1.3,13.3,0.5,26.3-5.3,38.7C574.9,401.4,563.1,407.7,550.2,412.2z"/>
</g>
<style>
        path { fill: #000; }
        @media (prefers-color-scheme: dark) {
            path { fill: #FFF; }
        }
    </style>
</svg>
