<?xml version="1.0" encoding="utf-8"?>
<!-- Generator: Adobe Illustrator 23.0.0, SVG Export Plug-In . SVG Version: 6.00 Build 0)  -->
<svg version="1.1" id="Layer_1" xmlns="http://www.w3.org/2000/svg" xmlns:xlink="http://www.w3.org/1999/xlink" x="0px" y="0px"
	 viewBox="0 0 250.4 73.7" style="enable-background:new 0 0 250.4 73.7;" xml:space="preserve" fill="#50fa7b">
<g>
	<path d="M231.7,62.6c-1.2,0-2.4-0.5-3.2-1.4C212.7,44.6,170.4,35.7,106,35.3C56.7,35,11.8,40,11.3,40.1c-2.3,0.3-4.5-1.3-4.9-3.6
		c-0.4-2.3,1-4.5,3.3-5.1C134.3-0.1,239.3,18.6,240.4,18.8c2.4,0.4,4,2.8,3.6,5.2c-0.4,2.4-2.8,4-5.2,3.6
		c-0.8-0.1-65.9-11.8-154-1.1c55.6-1.2,125.8,2.9,150.1,28.6c1.7,1.8,1.6,4.6-0.2,6.3C233.9,62.2,232.8,62.6,231.7,62.6z"/>
</g>
</svg>
