<?xml version="1.0" encoding="utf-8"?>
<!-- Generator: Adobe Illustrator 23.0.0, SVG Export Plug-In . SVG Version: 6.00 Build 0)  -->
<svg version="1.1" id="Layer_1" xmlns="http://www.w3.org/2000/svg" xmlns:xlink="http://www.w3.org/1999/xlink" x="0px" y="0px"
	 viewBox="0 0 475.7 317.1" style="enable-background:new 0 0 475.7 317.1;" xml:space="preserve">
<style type="text/css">
	.st0{fill:#72dd40;}
	.st1{fill:#5ce1ff;}
	.st2{fill:#55838d;}
	.st3{fill:#282A36;}
</style>
<ellipse class="st0" cx="237.8" cy="158.6" rx="79.3" ry="137.3"/>
<path class="st1" d="M158.6,158.6c0-58.7,31.9-109.9,79.3-137.3C214.5,7.7,187.4,0,158.6,0C71,0,0,71,0,158.6s71,158.6,158.6,158.6
	c28.9,0,56-7.7,79.3-21.2C190.4,268.5,158.6,217.2,158.6,158.6z"/>
<path class="st2" d="M317.1,0c-28.9,0-56,7.7-79.3,21.2c47.4,27.4,79.3,78.7,79.3,137.3c0,58.7-31.9,109.9-79.3,137.3
	c23.3,13.5,50.4,21.2,79.3,21.2c87.6,0,158.6-71,158.6-158.6S404.7,0,317.1,0z"/>
<g>
	<path class="st3" d="M47.9,161.5h-6.8V159h2v-12h-2v-2.5h6.8v2.5H46v12h1.9V161.5z"/>
	<path class="st3" d="M67.6,155.4c0,1.6-0.4,3.1-1.3,4.4c-0.9,1.3-2.2,2-4,2c-1.8,0-3.1-0.7-3.9-2.1c0,0.2-0.1,0.5-0.1,0.9
		c-0.1,0.4-0.1,0.7-0.1,0.9h-2.8c0.1-0.6,0.2-1.2,0.3-1.8c0.1-0.6,0.1-1.2,0.1-1.8v-12.2h-1.7v-2.1h4.5v8.5c0.3-0.7,0.8-1.3,1.5-1.8
		c0.6-0.5,1.5-0.8,2.6-0.8c1.5,0,2.7,0.5,3.6,1.5C67.2,152.1,67.6,153.6,67.6,155.4z M64.8,155.6c0-1.2-0.3-2.2-0.8-2.8
		c-0.6-0.6-1.3-1-2.1-1c-1,0-1.8,0.4-2.3,1.1c-0.6,0.7-0.8,1.5-0.9,2.4v0.8c0,1,0.3,1.8,0.8,2.4c0.6,0.7,1.3,1,2.2,1
		c1,0,1.7-0.4,2.3-1.1C64.5,157.8,64.8,156.8,64.8,155.6z"/>
	<path class="st3" d="M76.2,149.7c0.8,0,1.5,0.2,2.2,0.7l0.5,3.6l-2.2,0.3l-0.4-2c-0.3-0.2-0.6-0.3-0.9-0.3c-0.5,0-0.9,0.2-1.3,0.6
		c-0.4,0.4-0.5,1-0.5,1.7v5.2h2.3v2.1h-6.8v-2.1h1.7V152H69v-2.2h4.4v2.2c0.2-0.7,0.5-1.2,1-1.7S75.5,149.7,76.2,149.7z"/>
	<path class="st3" d="M92.4,155.7c0,1.8-0.6,3.3-1.7,4.4s-2.6,1.7-4.5,1.7c-1.8,0-3.2-0.5-4.3-1.6c-1.1-1.1-1.6-2.5-1.6-4.4
		c0-1.7,0.5-3.2,1.5-4.4c1-1.2,2.5-1.8,4.5-1.8c2,0,3.5,0.6,4.6,1.8C91.9,152.6,92.4,154,92.4,155.7z M89.5,155.6
		c0-1.2-0.3-2.2-0.9-2.9c-0.6-0.7-1.4-1-2.3-1c-1,0-1.8,0.4-2.3,1.1c-0.6,0.7-0.8,1.6-0.8,2.8c0,1.1,0.3,2,0.8,2.8
		c0.5,0.8,1.3,1.1,2.4,1.1c1,0,1.8-0.4,2.4-1.1C89.2,157.7,89.5,156.8,89.5,155.6z"/>
	<path class="st3" d="M106.8,161.5H101v-2.1h1.4l-2.4-2.9H98v2.9h1.3v2.1h-5.8v-2.1h1.7v-13.6h-1.8v-2.1H98v10.8h2l2.1-2.5h-1.5
		v-2.2h5.7v2.2h-1.5l-2.8,3.2l3.5,4.2h1.2V161.5z"/>
	<path class="st3" d="M118.6,157.9c-0.1,1-0.6,1.9-1.5,2.7c-0.9,0.8-2.1,1.1-3.7,1.1c-1.7,0-3.1-0.5-4.2-1.5c-1.1-1-1.6-2.5-1.6-4.4
		c0-1.8,0.5-3.3,1.5-4.5c1-1.2,2.4-1.8,4.2-1.8c1.6,0,2.9,0.5,3.8,1.4c0.9,1,1.4,2.2,1.4,3.7c0,0.5-0.1,1-0.2,1.6h-7.9
		c0.2,2.2,1.2,3.3,3.1,3.3c0.9,0,1.5-0.2,1.9-0.7c0.4-0.4,0.6-0.9,0.8-1.4L118.6,157.9z M115.7,154.5c0.1-0.7-0.1-1.3-0.5-2
		c-0.4-0.6-1-0.9-2-0.9c-0.8,0-1.5,0.3-1.9,0.8c-0.4,0.6-0.7,1.2-0.8,2.1H115.7z"/>
	<path class="st3" d="M29.3,182.2c0,1.2-0.5,2.1-1.5,2.8c-1,0.6-2.3,1-3.8,1c-0.8,0-1.7-0.1-2.5-0.3s-1.6-0.5-2.3-0.9l0.4-3l2.2,0.2
		l0,1.5c0.3,0.1,0.7,0.2,1.1,0.3c0.4,0.1,0.7,0.1,1,0.1c0.7,0,1.3-0.1,1.9-0.4c0.5-0.3,0.8-0.6,0.8-1.1c0-0.5-0.2-0.8-0.7-1
		s-1.1-0.4-1.8-0.5c-0.7-0.1-1.4-0.3-2.1-0.5c-0.7-0.2-1.3-0.5-1.8-1c-0.5-0.5-0.7-1.1-0.7-2.1c0-1.4,0.5-2.3,1.5-2.8
		c1-0.5,2.1-0.8,3.3-0.8c1.5,0,2.9,0.4,4.3,1.1l0.3,2.9l-2.2,0.3l-0.2-1.7c-0.7-0.3-1.4-0.4-2.1-0.4c-0.5,0-1,0.1-1.4,0.3
		c-0.4,0.2-0.6,0.6-0.6,1c0,0.5,0.2,0.8,0.7,1c0.5,0.2,1,0.3,1.7,0.5s1.4,0.3,2.1,0.5c0.7,0.2,1.3,0.5,1.7,1
		C29.1,180.6,29.3,181.3,29.3,182.2z"/>
	<path class="st3" d="M42.9,179.9c0,1.8-0.6,3.3-1.7,4.4s-2.6,1.7-4.5,1.7c-1.8,0-3.2-0.5-4.3-1.6c-1.1-1.1-1.6-2.5-1.6-4.4
		c0-1.7,0.5-3.2,1.5-4.4c1-1.2,2.5-1.8,4.5-1.8c2,0,3.5,0.6,4.6,1.8C42.4,176.8,42.9,178.2,42.9,179.9z M40,179.8
		c0-1.2-0.3-2.2-0.9-2.9c-0.6-0.7-1.4-1-2.3-1c-1,0-1.8,0.4-2.3,1.1c-0.6,0.7-0.8,1.6-0.8,2.8c0,1.1,0.3,2,0.8,2.8
		c0.5,0.8,1.3,1.1,2.4,1.1c1,0,1.8-0.4,2.4-1.1C39.7,181.9,40,181,40,179.8z"/>
	<path class="st3" d="M65.9,185.7h-5.1v-2.1h0.6V179c0-1.1-0.2-1.9-0.6-2.4c-0.4-0.5-0.9-0.7-1.7-0.7c-0.9,0-1.6,0.3-2,0.9
		s-0.6,1.3-0.7,2.1v4.5h1.7v2.1h-5.1v-2.1h0.6V179c0-1.1-0.2-1.9-0.6-2.4c-0.4-0.5-0.9-0.7-1.6-0.7c-0.9,0-1.6,0.3-2,0.9
		c-0.4,0.6-0.7,1.3-0.7,2.1v4.6H51v2.1h-6.7v-2.1h1.7v-7.4h-1.7V174h4.5v1.9c0.4-0.6,0.8-1.2,1.5-1.6c0.6-0.4,1.3-0.6,2.2-0.6
		s1.6,0.2,2.3,0.6c0.7,0.4,1.2,1.1,1.5,2c0.3-0.8,0.8-1.4,1.5-1.9c0.7-0.5,1.5-0.7,2.4-0.7c1.1,0,2,0.3,2.8,1
		c0.8,0.7,1.2,1.7,1.2,3.2v5.6h1.7V185.7z"/>
	<path class="st3" d="M78,182.1c-0.1,1-0.6,1.9-1.5,2.7c-0.9,0.8-2.1,1.1-3.7,1.1c-1.7,0-3.1-0.5-4.2-1.5c-1.1-1-1.6-2.5-1.6-4.4
		c0-1.8,0.5-3.3,1.5-4.5c1-1.2,2.4-1.8,4.2-1.8c1.6,0,2.9,0.5,3.8,1.4c0.9,1,1.4,2.2,1.4,3.7c0,0.5-0.1,1-0.2,1.6h-7.9
		c0.2,2.2,1.2,3.3,3.1,3.3c0.9,0,1.5-0.2,1.9-0.7c0.4-0.4,0.6-0.9,0.8-1.4L78,182.1z M75,178.7c0.1-0.7-0.1-1.3-0.5-2
		c-0.4-0.6-1-0.9-2-0.9c-0.8,0-1.5,0.3-1.9,0.8c-0.4,0.6-0.7,1.2-0.8,2.1H75z"/>
	<path class="st3" d="M88.8,182.3c-0.3,2.5-1.7,3.7-4.1,3.7c-1.2,0-2.2-0.3-3-1c-0.7-0.7-1.1-1.6-1.1-2.8v-6.1h-1.7V174h1.7v-3.6
		h2.8v3.6h4.3v2.1h-4.3v5.7c0,1.2,0.5,1.8,1.6,1.8c0.3,0,0.6-0.1,1-0.3c0.4-0.2,0.6-0.8,0.8-1.7L88.8,182.3z"/>
	<path class="st3" d="M103.4,185.7h-6.3v-2.1h1.7V179c0-1.1-0.2-1.9-0.6-2.4c-0.4-0.5-1-0.7-1.7-0.7c-0.8,0-1.5,0.3-2,0.8
		c-0.5,0.6-0.8,1.2-0.8,2v4.8h1.7v2.1h-6.2v-2.1h1.7V170h-1.7v-2.1h4.5v8.1c0.8-1.4,2.1-2.2,3.9-2.2c1.1,0,2.1,0.3,2.9,1
		c0.8,0.7,1.2,1.7,1.2,3.2v5.6h1.7V185.7z"/>
	<path class="st3" d="M110.7,185.7h-6.2v-2.1h1.7v-7.4h-1.8V174h4.6v9.5h1.7V185.7z M106.1,171.6v-3.1h2.8v3.1H106.1z"/>
	<path class="st3" d="M126.2,185.7h-6.2v-2.1h1.7V179c0-1.1-0.2-1.9-0.6-2.4c-0.4-0.5-1-0.7-1.7-0.7c-0.9,0-1.6,0.3-2.1,0.9
		c-0.5,0.6-0.8,1.3-0.8,2.1v4.7h1.7v2.1H112v-2.1h1.7v-7.4h-1.8V174h4.6v1.9c0.8-1.4,2.1-2.1,3.9-2.1c1.1,0,2.1,0.3,2.9,1
		c0.8,0.7,1.2,1.7,1.2,3.2v5.6h1.7V185.7z"/>
	<path class="st3" d="M140.7,176.2H139v9.1c0,1.9-0.5,3.4-1.5,4.5c-1,1.1-2.6,1.7-4.6,1.7c-1.2,0-2.3-0.3-3.4-0.8
		c-1.1-0.5-1.8-1.4-2.2-2.7l2.2-1.2c0.7,1.6,1.9,2.4,3.5,2.4c1,0,1.8-0.3,2.4-1s0.9-1.7,0.9-3v-1.7c-0.3,0.6-0.8,1.2-1.4,1.6
		c-0.6,0.4-1.5,0.7-2.5,0.7c-1.4,0-2.6-0.5-3.5-1.4c-1-1-1.5-2.4-1.5-4.2c0-1.7,0.4-3.1,1.3-4.4c0.9-1.3,2.2-1.9,3.9-1.9
		c1.8,0,3,0.7,3.8,2.1V174h4.5V176.2z M136.2,180.1v-0.9c0-1-0.3-1.7-0.8-2.3c-0.6-0.6-1.2-0.9-2.1-0.9c-1,0-1.7,0.4-2.2,1.1
		s-0.8,1.7-0.8,2.8c0,1.2,0.3,2.1,0.8,2.7s1.2,0.9,2,0.9c1,0,1.8-0.3,2.3-1C135.9,181.8,136.2,181,136.2,180.1z"/>
</g>
<g>
	<path class="st3" d="M224.3,157.7h-3.5v-5h-9.3l-0.4-2.9l6.6-12.5h6.5v12.5h3.2l-0.3,2.9h-2.9V157.7z M220.8,149.7v-9.5h-1.3
		l-5,9.5H220.8z"/>
	<path class="st3" d="M245,147.5c0,3.4-0.7,5.9-2.1,7.6c-1.4,1.7-3.4,2.6-5.8,2.6c-2.5,0-4.4-0.9-5.8-2.6c-1.3-1.7-2-4.2-2-7.5
		c0-3.1,0.7-5.7,2-7.6c1.3-2,3.3-3,5.9-3c2.7,0,4.7,1,5.9,3C244.4,142,245,144.5,245,147.5z M241.3,147.3c0-2.4-0.4-4.1-1.1-5.1
		c-0.7-1-1.7-1.5-3.1-1.5c-1.3,0-2.4,0.5-3.1,1.5s-1.1,2.7-1.1,5.1c0,2.4,0.3,4.1,1,5.1c0.7,1,1.7,1.5,3.1,1.5c1.3,0,2.3-0.5,3-1.5
		C240.9,151.5,241.3,149.8,241.3,147.3z"/>
	<path class="st3" d="M259.8,157.7h-3.5v-5H247l-0.4-2.9l6.6-12.5h6.5v12.5h3.2l-0.3,2.9h-2.9V157.7z M256.3,149.7v-9.5H255l-5,9.5
		H256.3z"/>
	<path class="st3" d="M221.8,177.3c0,2.2-0.7,3.9-2.1,5.1c-1.4,1.1-3.1,1.7-5.2,1.7H211v4.1h3.3v3h-9.1v-3h2.4v-14.4h-2.4v-3h9.1
		c2.5,0,4.4,0.6,5.6,1.8C221.2,173.9,221.8,175.4,221.8,177.3z M218.1,177.4c0-1.1-0.3-2-1-2.6c-0.6-0.6-1.7-0.9-3.2-0.9H211v7.3
		h2.9c1.5,0,2.5-0.3,3.2-1C217.7,179.4,218.1,178.5,218.1,177.4z"/>
	<path class="st3" d="M224.5,178.2c1-0.5,2-0.8,2.8-1c0.8-0.2,1.8-0.3,2.8-0.3c1.6,0,2.9,0.4,3.9,1.2c1,0.8,1.5,2,1.5,3.6v6.3
		c0,0.8,0.3,1.3,1,1.3c0.2,0,0.4,0,0.7-0.1l0,1.8c-0.7,0.4-1.4,0.6-2.3,0.6c-1.8,0-2.7-0.9-2.9-2.8v-0.1c-0.4,0.7-1,1.4-1.8,2
		c-0.8,0.6-1.7,0.9-2.8,0.9c-1,0-1.9-0.3-2.9-0.9c-1-0.6-1.4-1.6-1.4-3.1c0-1.7,0.7-2.9,2.1-3.4c1.4-0.6,2.9-0.8,4.5-0.8
		c0.4,0,0.8,0,1.2,0c0.4,0,0.8,0.1,1.2,0.1v-0.8c0-0.8-0.1-1.6-0.4-2.3c-0.3-0.7-1-1-2.2-1c-0.4,0-0.9,0-1.2,0.1
		c-0.4,0.1-0.8,0.2-1.1,0.4l-0.6,2.2l-2.7-0.3L224.5,178.2z M232.2,185.6v-0.5c-0.4,0-0.7-0.1-1.1-0.1c-0.4,0-0.8-0.1-1.2-0.1
		c-0.8,0-1.6,0.1-2.2,0.4c-0.7,0.3-1,0.9-1,1.8c0,1.3,0.7,1.9,2,1.9c0.8,0,1.5-0.3,2.3-0.9C231.7,187.6,232.1,186.7,232.2,185.6z"/>
	<path class="st3" d="M254.9,179.7h-2v10.9c0,2.2-0.6,4-1.9,5.4c-1.2,1.4-3.1,2.1-5.6,2.1c-1.5,0-2.8-0.3-4.1-0.9
		c-1.3-0.6-2.2-1.7-2.7-3.2l2.6-1.4c0.9,1.9,2.3,2.9,4.3,2.9c1.2,0,2.1-0.4,2.9-1.3s1.1-2,1.1-3.6v-2.1c-0.4,0.8-1,1.4-1.7,1.9
		c-0.7,0.5-1.8,0.8-3.1,0.8c-1.7,0-3.1-0.6-4.3-1.7c-1.2-1.2-1.8-2.8-1.8-5.1c0-2,0.5-3.8,1.6-5.3c1.1-1.5,2.6-2.3,4.7-2.3
		c2.1,0,3.6,0.8,4.5,2.5v-2.2h5.4V179.7z M249.5,184.5v-1.1c0-1.2-0.3-2.1-1-2.8c-0.7-0.7-1.5-1-2.5-1c-1.2,0-2.1,0.4-2.7,1.3
		c-0.6,0.8-0.9,2-0.9,3.4c0,1.5,0.3,2.6,0.9,3.3c0.6,0.7,1.4,1,2.4,1c1.2,0,2.1-0.4,2.8-1.3S249.5,185.5,249.5,184.5z"/>
	<path class="st3" d="M269.5,186.9c-0.1,1.2-0.7,2.3-1.8,3.2c-1.1,0.9-2.6,1.4-4.5,1.4c-2,0-3.7-0.6-5-1.8c-1.3-1.2-2-3-2-5.3
		c0-2.2,0.6-3.9,1.8-5.4c1.2-1.4,2.9-2.2,5-2.2c1.9,0,3.5,0.6,4.6,1.7c1.1,1.2,1.7,2.6,1.7,4.4c0,0.6-0.1,1.2-0.2,1.9h-9.5
		c0.2,2.6,1.4,3.9,3.8,3.9c1.1,0,1.9-0.3,2.3-0.8c0.5-0.5,0.8-1.1,0.9-1.7L269.5,186.9z M265.9,182.8c0.1-0.8-0.1-1.6-0.6-2.4
		s-1.3-1.1-2.4-1.1c-1,0-1.8,0.3-2.3,1c-0.5,0.7-0.8,1.5-1,2.5H265.9z"/>
</g>
<g>
	<path class="st3" d="M354.6,147.2h-1.5l-5,7.9v4.1h2.8v2.5h-8.4v-2.5h2.7v-4.1l-5.2-7.9h-1.6v-2.5h6.7v2.5h-1.8l3.4,5.3h0.2
		l3.3-5.3h-1.9v-2.5h6.4V147.2z"/>
	<path class="st3" d="M365.7,155.8c0,1.8-0.6,3.3-1.7,4.4c-1.2,1.1-2.6,1.7-4.5,1.7c-1.8,0-3.2-0.5-4.3-1.6
		c-1.1-1.1-1.6-2.5-1.6-4.4c0-1.7,0.5-3.2,1.5-4.4c1-1.2,2.5-1.8,4.5-1.8c2,0,3.5,0.6,4.6,1.8C365.2,152.7,365.7,154.2,365.7,155.8z
		 M362.8,155.7c0-1.2-0.3-2.2-0.9-2.9c-0.6-0.7-1.4-1-2.3-1c-1,0-1.8,0.4-2.3,1.1c-0.6,0.7-0.8,1.6-0.8,2.8c0,1.1,0.3,2,0.8,2.8
		c0.5,0.8,1.3,1.1,2.4,1.1c1,0,1.8-0.4,2.4-1.1C362.5,157.9,362.8,156.9,362.8,155.7z"/>
	<path class="st3" d="M381,161.6h-4.6v-2c-0.8,1.5-2,2.2-3.8,2.2c-1.1,0-2.1-0.3-2.9-1c-0.8-0.7-1.2-1.7-1.2-3.2v-5.6h-1.7V150h4.5
		v6.7c0,1.1,0.2,1.9,0.6,2.4c0.4,0.5,1,0.7,1.7,0.7c0.9,0,1.6-0.3,2.1-0.9c0.5-0.6,0.8-1.3,0.8-2.2v-4.5h-2.1V150h4.9v9.5h1.8V161.6
		z"/>
	<path class="st3" d="M398.2,157.4c-0.1,1-0.6,2-1.4,3c-0.8,1-2.1,1.4-3.8,1.4c-1.7,0-3-0.5-4.1-1.5c-1-1-1.6-2.5-1.6-4.4
		c0-1.9,0.5-3.4,1.6-4.6c1.1-1.1,2.5-1.7,4.3-1.7c0.7,0,1.4,0.1,2.1,0.3c0.7,0.2,1.4,0.5,2.1,0.9l0.5,3.3l-2.2,0.2l-0.4-1.9
		c-0.6-0.3-1.3-0.5-2-0.5c-1.9,0-2.9,1.3-2.9,3.9c0,2.5,1,3.8,3,3.8c1.5,0,2.3-0.9,2.6-2.7L398.2,157.4z"/>
	<path class="st3" d="M400.7,150.8c0.9-0.4,1.6-0.7,2.3-0.9s1.5-0.2,2.3-0.2c1.3,0,2.4,0.3,3.2,1c0.8,0.7,1.3,1.6,1.3,3v5.3
		c0,0.7,0.3,1,0.9,1c0.2,0,0.4,0,0.6-0.1l0,1.5c-0.6,0.3-1.2,0.5-1.9,0.5c-1.5,0-2.3-0.8-2.4-2.3v-0.1c-0.3,0.6-0.8,1.2-1.5,1.6
		c-0.6,0.5-1.4,0.7-2.4,0.7c-0.8,0-1.6-0.2-2.4-0.7c-0.8-0.5-1.2-1.4-1.2-2.6c0-1.4,0.6-2.4,1.7-2.8c1.1-0.5,2.4-0.7,3.7-0.7
		c0.3,0,0.7,0,1,0c0.3,0,0.7,0,1,0.1v-0.7c0-0.7-0.1-1.3-0.4-1.9c-0.2-0.6-0.8-0.8-1.8-0.8c-0.4,0-0.7,0-1,0.1
		c-0.3,0.1-0.6,0.2-0.9,0.3l-0.5,1.8l-2.2-0.2L400.7,150.8z M407,157v-0.4c-0.3,0-0.6-0.1-0.9-0.1c-0.3,0-0.6-0.1-1-0.1
		c-0.7,0-1.3,0.1-1.9,0.4c-0.5,0.2-0.8,0.7-0.8,1.5c0,1.1,0.6,1.6,1.7,1.6c0.7,0,1.3-0.2,1.9-0.7C406.6,158.6,406.9,157.9,407,157z"
		/>
	<path class="st3" d="M426.6,161.6h-6.2v-2.1h1.7v-4.6c0-1.1-0.2-1.9-0.6-2.4c-0.4-0.5-1-0.7-1.7-0.7c-0.9,0-1.6,0.3-2.1,0.9
		c-0.5,0.6-0.8,1.3-0.8,2.1v4.7h1.7v2.1h-6.3v-2.1h1.7v-7.4h-1.8V150h4.6v1.9c0.8-1.4,2.1-2.1,3.9-2.1c1.1,0,2.1,0.3,2.9,1
		c0.8,0.7,1.2,1.7,1.2,3.2v5.6h1.7V161.6z"/>
	<path class="st3" d="M430.4,151.8H428l-0.2-7.1h2.8L430.4,151.8z"/>
	<path class="st3" d="M442,158.2c-0.3,2.5-1.7,3.7-4.1,3.7c-1.2,0-2.2-0.3-3-1c-0.7-0.7-1.1-1.6-1.1-2.8V152h-1.7V150h1.7v-3.6h2.8
		v3.6h4.3v2.1h-4.3v5.7c0,1.2,0.5,1.8,1.6,1.8c0.3,0,0.6-0.1,1-0.3c0.4-0.2,0.6-0.8,0.8-1.7L442,158.2z"/>
	<path class="st3" d="M375,181.4c-0.3,2.5-1.7,3.7-4.1,3.7c-1.2,0-2.2-0.3-3-1c-0.7-0.7-1.1-1.6-1.1-2.8v-6.1h-1.7v-2.1h1.7v-3.6
		h2.8v3.6h4.3v2.1h-4.3v5.7c0,1.2,0.5,1.8,1.6,1.8c0.3,0,0.6-0.1,1-0.3c0.4-0.2,0.6-0.8,0.8-1.7L375,181.4z"/>
	<path class="st3" d="M388.2,175.3h-1.2l-3.9,9.5l-1.3,3.4h1.7v2.2h-6.2v-2.2h2l1.1-3.3l-4.1-9.6h-1.3v-2.1h5.7v2.1h-1.5l2.7,6.3
		h0.2l2.2-6.3h-1.3v-2.1h5.3V175.3z"/>
	<path class="st3" d="M402.3,178.7c0,1.7-0.4,3.1-1.3,4.4c-0.9,1.3-2.2,2-4,2c-1.7,0-2.9-0.6-3.7-1.8v4.9h2.3v2.2h-6.8v-2.2h1.7
		v-12.9h-1.8v-2.1h4.6v2.3c0.3-0.7,0.8-1.3,1.4-1.8c0.6-0.5,1.5-0.8,2.6-0.8c1.5,0,2.7,0.5,3.6,1.5
		C401.8,175.5,402.3,176.9,402.3,178.7z M399.4,179c0-1.2-0.3-2.2-0.9-2.8c-0.6-0.6-1.3-1-2.2-1c-0.9,0-1.7,0.4-2.2,1.1
		c-0.5,0.7-0.8,1.5-0.9,2.5l0,0.9c0,1,0.3,1.8,0.8,2.3c0.6,0.6,1.3,0.9,2.2,0.9c1,0,1.8-0.3,2.3-1S399.4,180.2,399.4,179z"/>
	<path class="st3" d="M414.8,181.3c-0.1,1-0.6,1.9-1.5,2.7s-2.1,1.1-3.7,1.1c-1.7,0-3.1-0.5-4.2-1.5c-1.1-1-1.6-2.5-1.6-4.4
		c0-1.8,0.5-3.3,1.5-4.5c1-1.2,2.4-1.8,4.2-1.8c1.6,0,2.9,0.5,3.8,1.4s1.4,2.2,1.4,3.7c0,0.5-0.1,1-0.2,1.6h-7.9
		c0.2,2.2,1.2,3.3,3.1,3.3c0.9,0,1.5-0.2,1.9-0.7c0.4-0.4,0.6-0.9,0.8-1.4L414.8,181.3z M411.8,177.9c0.1-0.7-0.1-1.3-0.5-2
		c-0.4-0.6-1-0.9-2-0.9c-0.8,0-1.5,0.3-1.9,0.8c-0.4,0.6-0.7,1.2-0.8,2.1H411.8z"/>
</g>
</svg>
